<?xml version="1.0" encoding="utf-8"?>
<svg viewBox="224 214 52 72" xmlns="http://www.w3.org/2000/svg">
  <path d="M 276 245.937 C 276 232.251 265.424 221.043 252 220.021 L 252 216 C 252 214.896 251.104 214 250 214 C 248.896 214 248 214.896 248 216 L 248 220.021 C 234.576 221.043 224 232.251 224 245.937 C 224.821 245.937 225.63 245.891 226.431 245.816 C 225.319 252.234 226.686 258.688 230 264 C 230.989 263.678 231.955 263.292 232.898 262.855 C 233.365 267.66 235.146 272.209 238 276 C 239.211 275.485 240.377 274.874 241.495 274.184 C 243.162 278.893 246.14 282.981 250 286 C 253.86 282.98 256.822 278.883 258.488 274.173 C 259.611 274.867 260.783 275.482 262 276 C 264.854 272.209 266.636 267.661 267.103 262.855 C 268.045 263.293 269.011 263.678 270 264 C 273.313 258.688 274.681 252.234 273.568 245.816 C 274.37 245.89 275.18 245.937 276 245.937 Z M 250 223.937 C 260.607 223.937 269.486 231.483 271.548 241.489 C 268.308 240.825 265.266 239.433 262.586 237.367 L 259.065 234.654 L 256.736 238.439 C 255.018 241.232 252.714 243.597 250 245.371 C 247.286 243.598 244.981 241.232 243.263 238.439 L 240.934 234.653 L 237.413 237.367 C 234.734 239.432 231.691 240.825 228.451 241.489 C 230.514 231.482 239.392 223.937 250 223.937 Z M 253.596 248.169 C 254.178 249.767 254.907 251.268 255.75 252.674 C 255.106 257.161 253.123 261.313 250 264.61 C 246.877 261.313 244.894 257.162 244.25 252.673 C 245.094 251.268 245.823 249.767 246.404 248.169 C 246.448 248.047 246.479 247.923 246.521 247.801 C 247.619 248.619 248.776 249.362 250 250 C 251.224 249.362 252.381 248.619 253.479 247.801 C 253.521 247.923 253.552 248.047 253.596 248.169 Z M 231.844 258.934 C 229.944 254.553 229.537 249.714 230.667 245.065 C 234.049 244.168 237.163 242.613 239.857 240.536 C 240.825 242.109 241.959 243.566 243.227 244.895 C 243.061 245.535 242.875 246.172 242.645 246.802 C 240.7 252.146 236.847 256.434 231.844 258.934 Z M 239.395 270.793 C 237.689 267.646 236.82 264.167 236.786 260.63 C 238.341 259.554 239.785 258.308 241.084 256.901 C 242.001 259.994 243.477 262.841 245.396 265.337 C 243.764 267.498 241.741 269.353 239.395 270.793 Z M 250 280.609 C 247.584 278.06 245.861 274.997 244.902 271.664 C 246.057 270.66 247.122 269.547 248.095 268.345 C 248.705 268.925 249.336 269.48 250 270 C 250.664 269.48 251.295 268.924 251.904 268.344 C 252.877 269.545 253.942 270.658 255.097 271.663 C 254.138 274.995 252.416 278.06 250 280.609 Z M 260.605 270.793 C 258.259 269.354 256.238 267.499 254.605 265.338 C 256.522 262.844 258.003 259.998 258.919 256.905 C 260.218 258.31 261.66 259.555 263.214 260.63 C 263.181 264.167 262.312 267.646 260.605 270.793 Z M 268.156 258.934 C 263.153 256.434 259.3 252.146 257.354 246.801 C 257.125 246.171 256.938 245.534 256.773 244.894 C 258.042 243.565 259.175 242.108 260.143 240.535 C 262.837 242.612 265.952 244.167 269.333 245.064 C 270.463 249.714 270.057 254.553 268.156 258.934 Z" transform="matrix(1, 0, 0, 1, -7.105427357601002e-15, 0)"/>
</svg>